<svg width="15" height="15" viewBox="0 0 15 15" fill="none" xmlns="http://www.w3.org/2000/svg">
<path fill-rule="evenodd" clip-rule="evenodd" d="M7.5 0C6.72335 0 6.09375 0.6296 6.09375 1.40625V6.09375H1.40625C0.6296 6.09375 0 6.72335 0 7.5C0 8.27665 0.629599 8.90625 1.40625 8.90625H6.09375V13.5938C6.09375 14.3704 6.72335 15 7.5 15C8.27665 15 8.90625 14.3704 8.90625 13.5938V8.90625H13.5938C14.3704 8.90625 15 8.27665 15 7.5C15 6.72335 14.3704 6.09375 13.5938 6.09375H8.90625V1.40625C8.90625 0.6296 8.27665 0 7.5 0Z" fill="currentColor"/>
</svg>
