<svg width="32" height="32" viewBox="0 0 32 32" fill="none" xmlns="http://www.w3.org/2000/svg">
<path d="M28.5812 11.9969C27.9471 9.78167 26.7796 7.75566 25.1809 6.09629C23.2997 4.14811 20.8744 2.81309 18.2221 2.26589C15.5874 1.72755 12.8511 2.0067 10.3793 3.06597C7.88139 4.13964 5.7602 5.93353 4.28669 8.21851C0.692176 13.7928 1.39039 21.105 5.97486 25.8983C10.4816 30.6164 17.7507 31.3553 23.1146 27.6405C25.3628 26.0825 27.1021 23.8966 28.1152 21.3559L28.5812 11.9969ZM28.5812 11.9969L30.0014 6.53233M28.5812 11.9969L23.2827 10.5327M13.9997 11.9969V17.9975H20.0003" stroke="currentColor" stroke-width="3" stroke-linecap="round" stroke-linejoin="round"/>
</svg>
