<svg width="135" height="135" viewBox="0 0 135 135" fill="none" xmlns="http://www.w3.org/2000/svg">
<path fill-rule="evenodd" clip-rule="evenodd" d="M40.5088 14.5035C48.6112 10.3647 57.7853 8.02979 67.4999 8.02979C80.1847 8.02979 91.9381 12.0059 101.595 18.7813C116.943 29.5498 126.97 47.3663 126.97 67.4999C126.97 87.7453 116.829 105.643 101.355 116.386L40.5088 14.5035ZM33.6455 18.6139C18.1708 29.3565 8.02979 47.2543 8.02979 67.4999C8.02979 100.32 34.6799 126.97 67.4999 126.97C77.2149 126.97 86.3892 124.635 94.4917 120.496L33.6455 18.6139ZM67.4999 0.0297852C30.2616 0.0297852 0.0297852 30.2616 0.0297852 67.4999C0.0297852 104.738 30.2616 134.97 67.4999 134.97C104.738 134.97 134.97 104.738 134.97 67.4999C134.97 44.6452 123.578 24.432 106.19 12.2323L103.909 15.4828L106.19 12.2323C95.2322 4.54452 81.8837 0.0297852 67.4999 0.0297852Z" fill="#B6739F"/>
</svg>
