<svg width="26" height="27" viewBox="0 0 26 27" fill="none" xmlns="http://www.w3.org/2000/svg">
<path fill-rule="evenodd" clip-rule="evenodd" d="M20.1049 2.22739C19.2892 2.22942 18.627 2.89252 18.627 3.69739V10.9774H21.7419C22.4763 10.9774 22.9906 10.7488 23.3195 10.4199C23.6483 10.0911 23.877 9.57672 23.877 8.84239V6.01905C23.877 4.98033 23.4532 4.03164 22.7661 3.334C22.0871 2.65604 21.1414 2.23802 20.1049 2.22739ZM16.877 3.69739C16.877 1.91349 18.3361 0.477386 20.1086 0.477386H20.1167L20.1167 0.477423C21.6208 0.491223 23.0058 1.0988 24.0057 2.09867L24.01 2.10294L24.0099 2.10295C25.0017 3.10844 25.627 4.49219 25.627 6.01905V8.84239C25.627 9.95138 25.2722 10.942 24.5569 11.6574C23.8416 12.3727 22.8509 12.7274 21.7419 12.7274H17.752C17.2687 12.7274 16.877 12.3356 16.877 11.8524V3.69739Z" fill="currentColor"/>
<path fill-rule="evenodd" clip-rule="evenodd" d="M1.77753 2.14696C2.71645 1.05969 4.15648 0.477386 6.08561 0.477386H20.0856C20.5689 0.477386 20.9606 0.869137 20.9606 1.35239C20.9606 1.83564 20.5689 2.22739 20.0856 2.22739C19.2855 2.22739 18.6273 2.88564 18.6273 3.68572V23.5191C18.6273 25.2011 16.7064 26.1515 15.3641 25.1549L15.3613 25.1529L13.3571 23.6527C13.2565 23.5753 13.0957 23.5798 12.9927 23.6828L11.0327 25.6428C10.236 26.4395 8.93524 26.4395 8.13853 25.6428L8.13667 25.6409L6.2019 23.6944C6.20171 23.6943 6.20208 23.6946 6.2019 23.6944C6.08613 23.5792 5.91957 23.5736 5.80561 23.6591L3.81396 25.1498C3.81318 25.1504 3.81239 25.151 3.81161 25.1516C2.46039 26.1725 0.543945 25.203 0.543945 23.5191V6.01905C0.543945 4.61571 0.859333 3.21023 1.77753 2.14696ZM17.2293 2.22739H6.08561C4.51474 2.22739 3.62144 2.68925 3.10202 3.29073C2.56189 3.91621 2.29395 4.84406 2.29395 6.01905V23.5191C2.29395 23.7708 2.56856 23.8978 2.75721 23.7549L2.76124 23.7519L4.75561 22.2591C5.5748 21.6447 6.71513 21.7328 7.43934 22.457L7.4412 22.4589L9.37597 24.4053C9.37615 24.4055 9.3758 24.4052 9.37597 24.4053C9.48933 24.5181 9.68214 24.5184 9.79525 24.4053L11.7552 22.4453C12.4674 21.7332 13.6097 21.6433 14.4189 22.2615L16.4072 23.7498C16.4076 23.7501 16.4079 23.7503 16.4082 23.7506C16.6058 23.8961 16.8773 23.75 16.8773 23.5191V3.68572C16.8773 3.16123 17.0044 2.66538 17.2293 2.22739Z" fill="currentColor"/>
<path fill-rule="evenodd" clip-rule="evenodd" d="M5.21094 9.51904C5.21094 9.03579 5.60269 8.64404 6.08594 8.64404H13.0859C13.5692 8.64404 13.9609 9.03579 13.9609 9.51904C13.9609 10.0023 13.5692 10.394 13.0859 10.394H6.08594C5.60269 10.394 5.21094 10.0023 5.21094 9.51904Z" fill="currentColor"/>
<path fill-rule="evenodd" clip-rule="evenodd" d="M6.08594 14.1857C6.08594 13.7025 6.47769 13.3107 6.96094 13.3107H12.2109C12.6942 13.3107 13.0859 13.7025 13.0859 14.1857C13.0859 14.669 12.6942 15.0607 12.2109 15.0607H6.96094C6.47769 15.0607 6.08594 14.669 6.08594 14.1857Z" fill="currentColor"/>
</svg>
