<svg width="31" height="24" viewBox="0 0 31 24" fill="none" xmlns="http://www.w3.org/2000/svg">
<path d="M21.3125 6.78125C21.3125 6.52432 21.4146 6.27792 21.5962 6.09624C21.7779 5.91456 22.0243 5.8125 22.2812 5.8125H26.1562C26.4132 5.8125 26.6596 5.91456 26.8413 6.09624C27.0229 6.27792 27.125 6.52432 27.125 6.78125V8.71875C27.125 8.97568 27.0229 9.22208 26.8413 9.40376C26.6596 9.58544 26.4132 9.6875 26.1562 9.6875H22.2812C22.0243 9.6875 21.7779 9.58544 21.5962 9.40376C21.4146 9.22208 21.3125 8.97568 21.3125 8.71875V6.78125Z" fill="currentColor"/>
<path d="M3.875 0C2.84729 0 1.86166 0.408258 1.13496 1.13496C0.408258 1.86166 0 2.84729 0 3.875V19.375C0 20.4027 0.408258 21.3883 1.13496 22.115C1.86166 22.8417 2.84729 23.25 3.875 23.25H27.125C28.1527 23.25 29.1383 22.8417 29.865 22.115C30.5917 21.3883 31 20.4027 31 19.375V3.875C31 2.84729 30.5917 1.86166 29.865 1.13496C29.1383 0.408258 28.1527 0 27.125 0H3.875ZM29.0625 3.875V13.5625H1.9375V3.875C1.9375 3.36114 2.14163 2.86833 2.50498 2.50498C2.86833 2.14163 3.36114 1.9375 3.875 1.9375H27.125C27.6389 1.9375 28.1317 2.14163 28.495 2.50498C28.8584 2.86833 29.0625 3.36114 29.0625 3.875ZM27.125 21.3125H3.875C3.36114 21.3125 2.86833 21.1084 2.50498 20.745C2.14163 20.3817 1.9375 19.8889 1.9375 19.375V17.4375H29.0625V19.375C29.0625 19.8889 28.8584 20.3817 28.495 20.745C28.1317 21.1084 27.6389 21.3125 27.125 21.3125Z" fill="currentColor"/>
</svg>
