<svg width="14" height="14" viewBox="0 0 14 14" fill="none" xmlns="http://www.w3.org/2000/svg">
<path d="M8.15636 7.73974C8.00656 7.90051 7.8259 8.02946 7.62517 8.1189C7.42445 8.20834 7.20776 8.25643 6.98805 8.2603C6.76833 8.26418 6.55009 8.22376 6.34633 8.14146C6.14258 8.05916 5.95748 7.93666 5.8021 7.78128C5.64671 7.62589 5.52421 7.4408 5.44191 7.23704C5.35961 7.03329 5.3192 6.81504 5.32307 6.59533C5.32695 6.37561 5.37504 6.15893 5.46448 5.9582C5.55392 5.75748 5.68287 5.57682 5.84364 5.42701M10.24 9.82338C9.3076 10.5341 8.17224 10.9278 7 10.947C3.18182 10.947 1 6.58338 1 6.58338C1.67849 5.31896 2.61953 4.21425 3.76 3.34338L10.24 9.82338ZM5.85455 2.35065C6.23 2.26277 6.6144 2.21883 7 2.21974C10.8182 2.21974 13 6.58338 13 6.58338C12.6689 7.2028 12.274 7.78596 11.8218 8.32338L5.85455 2.35065Z" stroke="currentColor" stroke-width="1.16667" stroke-linecap="round" stroke-linejoin="round"/>
<path d="M1 0.583496L13 12.5835" stroke="currentColor" stroke-width="1.16667" stroke-linecap="round" stroke-linejoin="round"/>
</svg>
