<svg width="26" height="26" viewBox="0 0 26 26" fill="none" xmlns="http://www.w3.org/2000/svg">
<path fill-rule="evenodd" clip-rule="evenodd" d="M11.5295 9.78C11.1246 9.78 10.7128 10.1468 10.7128 10.69C10.7128 11.1013 10.8011 11.2497 10.8454 11.306C10.8979 11.3729 11.0029 11.4562 11.2838 11.5565L14.7979 12.7823C15.2091 12.9286 15.6789 13.1583 16.0298 13.6077C16.3885 14.067 16.5345 14.6399 16.5345 15.2983C16.5345 16.7306 15.426 17.9583 13.9678 17.9583H11.7745C10.1817 17.9583 8.95117 16.6195 8.95117 15.0417C8.95117 14.5584 9.34292 14.1667 9.82617 14.1667C10.3094 14.1667 10.7012 14.5584 10.7012 15.0417C10.7012 15.7271 11.2207 16.2083 11.7745 16.2083H13.9678C14.3764 16.2083 14.7845 15.8494 14.7845 15.2983C14.7845 14.895 14.6972 14.7446 14.6505 14.6848C14.5962 14.6152 14.4889 14.5302 14.2136 14.4319L10.6994 13.206C10.2938 13.0616 9.82181 12.8361 9.46905 12.3869C9.10791 11.927 8.96285 11.352 8.96285 10.69C8.96285 9.27321 10.0677 8.03 11.5295 8.03H13.7228C15.3157 8.03 16.5462 9.3688 16.5462 10.9467C16.5462 11.4299 16.1544 11.8217 15.6712 11.8217C15.1879 11.8217 14.7962 11.4299 14.7962 10.9467C14.7962 10.2612 14.2767 9.78 13.7228 9.78H11.5295Z" fill="currentColor"/>
<path fill-rule="evenodd" clip-rule="evenodd" d="M12.7432 6.875C13.2264 6.875 13.6182 7.26675 13.6182 7.75V18.25C13.6182 18.7332 13.2264 19.125 12.7432 19.125C12.2599 19.125 11.8682 18.7332 11.8682 18.25V7.75C11.8682 7.26675 12.2599 6.875 12.7432 6.875Z" fill="currentColor"/>
<path fill-rule="evenodd" clip-rule="evenodd" d="M12.7428 2.20834C6.78609 2.20834 1.95117 7.04326 1.95117 13C1.95117 18.9568 6.78609 23.7917 12.7428 23.7917C18.6996 23.7917 23.5345 18.9568 23.5345 13C23.5345 12.5168 23.9263 12.125 24.4095 12.125C24.8928 12.125 25.2845 12.5168 25.2845 13C25.2845 19.9233 19.6661 25.5417 12.7428 25.5417C5.81959 25.5417 0.201172 19.9233 0.201172 13C0.201172 6.07676 5.81959 0.458344 12.7428 0.458344C13.2261 0.458344 13.6178 0.850094 13.6178 1.33334C13.6178 1.81659 13.2261 2.20834 12.7428 2.20834Z" fill="currentColor"/>
<path fill-rule="evenodd" clip-rule="evenodd" d="M18.8682 1.33334C18.8682 0.850094 19.2599 0.458344 19.7432 0.458344H24.4098C24.8931 0.458344 25.2848 0.850094 25.2848 1.33334V6.00001C25.2848 6.48326 24.8931 6.87501 24.4098 6.87501C23.9266 6.87501 23.5348 6.48326 23.5348 6.00001V2.20834H19.7432C19.2599 2.20834 18.8682 1.81659 18.8682 1.33334Z" fill="currentColor"/>
<path fill-rule="evenodd" clip-rule="evenodd" d="M25.0282 0.714625C25.3699 1.05633 25.3699 1.61035 25.0282 1.95206L19.1949 7.7854C18.8532 8.1271 18.2992 8.1271 17.9575 7.7854C17.6157 7.44369 17.6157 6.88967 17.9575 6.54796L23.7908 0.714625C24.1325 0.372916 24.6865 0.372916 25.0282 0.714625Z" fill="currentColor"/>
</svg>
