<svg width="24" height="26" viewBox="0 0 24 26" fill="none" xmlns="http://www.w3.org/2000/svg">
<path fill-rule="evenodd" clip-rule="evenodd" d="M11.2203 0.193524C11.7285 0.0373394 12.2718 0.0373391 12.78 0.193524L16.761 1.41708C18.8378 2.0554 20.8102 2.99389 22.6156 4.20276C24.0198 5.14301 23.3542 7.33334 21.6643 7.33334H2.33604C0.646105 7.33334 -0.0194924 5.14302 1.38471 4.20276C3.19009 2.99389 5.16248 2.05541 7.23933 1.41708L11.2203 0.193524ZM12.1924 2.10527C12.0671 2.06676 11.9332 2.06676 11.8079 2.10527L7.82691 3.32882C6.2525 3.81272 4.74404 4.48611 3.33442 5.33334H20.6659C19.2563 4.48611 17.7478 3.81272 16.1734 3.32882L12.1924 2.10527Z" fill="currentColor"/>
<path d="M1.66683 25C1.66683 24.4477 2.11454 24 2.66683 24H21.3335C21.8858 24 22.3335 24.4477 22.3335 25C22.3335 25.5523 21.8858 26 21.3335 26H2.66683C2.11454 26 1.66683 25.5523 1.66683 25Z" fill="currentColor"/>
<path d="M4.3335 19.6667C4.3335 20.219 4.78121 20.6667 5.3335 20.6667C5.88578 20.6667 6.3335 20.219 6.3335 19.6667L6.3335 11.6667C6.3335 11.1144 5.88578 10.6667 5.3335 10.6667C4.78121 10.6667 4.3335 11.1144 4.3335 11.6667L4.3335 19.6667Z" fill="currentColor"/>
<path d="M12.0002 20.6667C11.4479 20.6667 11.0002 20.219 11.0002 19.6667L11.0002 11.6667C11.0002 11.1144 11.4479 10.6667 12.0002 10.6667C12.5524 10.6667 13.0002 11.1144 13.0002 11.6667V19.6667C13.0002 20.219 12.5524 20.6667 12.0002 20.6667Z" fill="currentColor"/>
<path d="M17.6668 19.6667C17.6668 20.219 18.1145 20.6667 18.6668 20.6667C19.2191 20.6667 19.6668 20.219 19.6668 19.6667V11.6667C19.6668 11.1144 19.2191 10.6667 18.6668 10.6667C18.1145 10.6667 17.6668 11.1144 17.6668 11.6667V19.6667Z" fill="currentColor"/>
</svg>
