<svg width="35" height="36" viewBox="0 0 35 36" fill="none" xmlns="http://www.w3.org/2000/svg">
<path d="M18.301 20.3134H1.96083V19.6598L16.3402 18.5094V19.6598H18.301V17.6989C18.301 16.261 17.1363 15.2518 15.7141 15.4544L2.58829 17.329C1.16473 17.5329 0 18.8754 0 20.3134V33.3856C0 34.0789 0.275449 34.7439 0.76575 35.2342C1.25605 35.7245 1.92104 36 2.61444 36H18.301C18.9944 36 19.6594 35.7245 20.1497 35.2342C20.64 34.7439 20.9155 34.0789 20.9155 33.3856V22.9278C20.9155 22.2344 20.64 21.5694 20.1497 21.0791C19.6594 20.5888 18.9944 20.3134 18.301 20.3134ZM16.3402 29.4717C16.0826 29.4717 15.8276 29.4208 15.5896 29.3222C15.3517 29.2235 15.1355 29.079 14.9534 28.8968C14.7714 28.7146 14.6269 28.4983 14.5285 28.2603C14.43 28.0223 14.3793 27.7672 14.3794 27.5096C14.3795 27.252 14.4303 26.997 14.529 26.759C14.6276 26.5211 14.7722 26.3049 14.9544 26.1228C15.1366 25.9407 15.3528 25.7963 15.5909 25.6978C15.8289 25.5993 16.0839 25.5487 16.3415 25.5488C16.8617 25.549 17.3606 25.7558 17.7283 26.1237C18.096 26.4917 18.3025 26.9907 18.3024 27.5109C18.3022 28.0311 18.0954 28.53 17.7274 28.8977C17.3594 29.2654 16.8604 29.4719 16.3402 29.4717Z" fill="currentColor"/>
<path d="M32.26 4.88481H15.9198V4.23121L30.2992 3.08085V4.23121H32.26V2.27038C32.26 0.83244 31.0953 -0.176732 29.673 0.0258865L16.5473 1.90044C15.1237 2.10436 13.959 3.44688 13.959 4.88481V17.957C13.959 18.6504 14.2344 19.3154 14.7247 19.8057C15.215 20.296 15.88 20.5714 16.5734 20.5714H32.26C32.9534 20.5714 33.6184 20.296 34.1087 19.8057C34.599 19.3154 34.8745 18.6504 34.8745 17.957V7.49925C34.8745 6.80586 34.599 6.14087 34.1087 5.65056C33.6184 5.16026 32.9534 4.88481 32.26 4.88481ZM30.2992 14.0432C30.0416 14.0431 29.7866 13.9923 29.5486 13.8936C29.3107 13.795 29.0945 13.6504 28.9124 13.4682C28.7303 13.286 28.5859 13.0697 28.4874 12.8317C28.3889 12.5937 28.3383 12.3386 28.3384 12.081C28.3385 11.8235 28.3893 11.5684 28.4879 11.3305C28.5866 11.0925 28.7311 10.8763 28.9133 10.6943C29.0955 10.5122 29.3118 10.3678 29.5498 10.2693C29.7878 10.1708 30.0429 10.1201 30.3005 10.1202C30.8207 10.1204 31.3196 10.3272 31.6873 10.6952C32.055 11.0632 32.2615 11.5621 32.2613 12.0824C32.2612 12.6026 32.0543 13.1014 31.6864 13.4691C31.3184 13.8369 30.8194 14.0434 30.2992 14.0432Z" fill="currentColor"/>
<path d="M19.1416 18.0956L19.9743 13.4655L15.2744 13.6695L16.7241 15.3287L9.53176 21.613L10.4986 22.7195L17.6909 16.4353L19.1416 18.0956ZM24.4647 16.3716L17.2723 22.6558L15.8221 20.996L14.9894 25.6261L19.6893 25.4221L18.2391 23.7623L25.4315 17.4781L24.4647 16.3716Z" fill="currentColor"/>
</svg>
