<svg width="26" height="22" viewBox="0 0 26 22" fill="none" xmlns="http://www.w3.org/2000/svg">
<path fill-rule="evenodd" clip-rule="evenodd" d="M0.373047 6.93573C0.373047 6.45248 0.764798 6.06073 1.24805 6.06073H14.6647C15.148 6.06073 15.5397 6.45248 15.5397 6.93573C15.5397 7.41898 15.148 7.81073 14.6647 7.81073H1.24805C0.764798 7.81073 0.373047 7.41898 0.373047 6.93573Z" fill="currentColor"/>
<path fill-rule="evenodd" clip-rule="evenodd" d="M5.04004 16.269C5.04004 15.7858 5.43179 15.394 5.91504 15.394H8.24837C8.73162 15.394 9.12337 15.7858 9.12337 16.269C9.12337 16.7523 8.73162 17.144 8.24837 17.144H5.91504C5.43179 17.144 5.04004 16.7523 5.04004 16.269Z" fill="currentColor"/>
<path fill-rule="evenodd" clip-rule="evenodd" d="M10.29 16.269C10.29 15.7858 10.6818 15.394 11.165 15.394H15.8317C16.315 15.394 16.7067 15.7858 16.7067 16.269C16.7067 16.7523 16.315 17.144 15.8317 17.144H11.165C10.6818 17.144 10.29 16.7523 10.29 16.269Z" fill="currentColor"/>
<path fill-rule="evenodd" clip-rule="evenodd" d="M2.90013 2.74981C2.40422 3.24013 2.12305 4.17209 2.12305 6.22405V15.8141C2.12305 17.866 2.40422 18.798 2.90013 19.2883C3.39948 19.782 4.35022 20.0607 6.42805 20.0607H19.4014C21.4792 20.0607 22.4299 19.782 22.9293 19.2883C23.4252 18.798 23.7064 17.866 23.7064 15.8141V11.0541C23.7064 10.5708 24.0981 10.1791 24.5814 10.1791C25.0646 10.1791 25.4564 10.5708 25.4564 11.0541V15.8141C25.4564 17.8571 25.2184 19.486 24.1597 20.5327C23.1045 21.5761 21.4652 21.8107 19.4014 21.8107H6.42805C4.36421 21.8107 2.72495 21.5761 1.66972 20.5327C0.611039 19.486 0.373047 17.8571 0.373047 15.8141V6.22405C0.373047 4.18102 0.611038 2.55214 1.66972 1.50538C2.72495 0.462032 4.36421 0.227386 6.42805 0.227386H14.6647C15.148 0.227386 15.5397 0.619137 15.5397 1.10239C15.5397 1.58564 15.148 1.97739 14.6647 1.97739H6.42805C4.35022 1.97739 3.39948 2.25607 2.90013 2.74981Z" fill="currentColor"/>
<path fill-rule="evenodd" clip-rule="evenodd" d="M17.29 4.31073C17.29 3.82748 17.6818 3.43573 18.165 3.43573H24.5817C25.065 3.43573 25.4567 3.82748 25.4567 4.31073C25.4567 4.79398 25.065 5.18573 24.5817 5.18573H18.165C17.6818 5.18573 17.29 4.79398 17.29 4.31073Z" fill="currentColor"/>
<path fill-rule="evenodd" clip-rule="evenodd" d="M21.373 0.227386C21.8563 0.227386 22.248 0.619137 22.248 1.10239V7.51905C22.248 8.0023 21.8563 8.39405 21.373 8.39405C20.8898 8.39405 20.498 8.0023 20.498 7.51905V1.10239C20.498 0.619137 20.8898 0.227386 21.373 0.227386Z" fill="currentColor"/>
</svg>
