<svg width="12" height="11" viewBox="0 0 12 11" fill="none" xmlns="http://www.w3.org/2000/svg">
<path fill-rule="evenodd" clip-rule="evenodd" d="M7.00488 1.67813C7.00488 1.12348 6.55524 0.673843 6.00059 0.673843C5.44594 0.673843 4.99631 1.12348 4.99631 1.67813V5.19443H1.11171C0.557055 5.19443 0.107422 5.64406 0.107422 6.19871C0.107422 6.75336 0.557055 7.203 1.11171 7.203H4.99631V9.58915C4.99631 10.1438 5.44594 10.5934 6.00059 10.5934C6.55524 10.5934 7.00488 10.1438 7.00488 9.58915V7.203H10.8895C11.4441 7.203 11.8938 6.75336 11.8938 6.19871C11.8938 5.64406 11.4441 5.19443 10.8895 5.19443H7.00488V1.67813Z" fill="currentColor"/>
</svg>
